<svg width="12" height="13" viewBox="0 0 12 13" fill="none" xmlns="http://www.w3.org/2000/svg">
<g clip-path="url(#clip0_5_567)">
<path d="M10.0965 4.85649C10.0681 4.78797 10.02 4.7294 9.95834 4.6882C9.89667 4.64699 9.82417 4.625 9.75 4.625H2.25C2.17583 4.625 2.10333 4.64699 2.04166 4.6882C1.97999 4.72941 1.93193 4.78797 1.90354 4.8565C1.87516 4.92502 1.86774 5.00042 1.88221 5.07317C1.89668 5.14591 1.9324 5.21273 1.98484 5.26517L5.73484 9.01516C5.76966 9.04998 5.811 9.07761 5.8565 9.09645C5.90199 9.1153 5.95076 9.125 6 9.125C6.04925 9.125 6.09801 9.1153 6.14351 9.09645C6.189 9.07761 6.23034 9.04998 6.26516 9.01516L10.0152 5.26517C10.0676 5.21273 10.1033 5.14591 10.1178 5.07316C10.1323 5.00042 10.1248 4.92502 10.0965 4.85649Z" fill="#242A31"/>
</g>
<defs>
<clipPath id="clip0_5_567">
<rect width="12" height="12" fill="white" transform="translate(0 0.5)"/>
</clipPath>
</defs>
</svg>
