<svg width="45" height="45" viewBox="0 0 45 45" fill="none" xmlns="http://www.w3.org/2000/svg">
<path d="M22.125 20.625C23.6084 20.625 25.0584 20.1851 26.2918 19.361C27.5251 18.5369 28.4864 17.3656 29.0541 15.9951C29.6218 14.6247 29.7703 13.1167 29.4809 11.6618C29.1915 10.207 28.4772 8.8706 27.4283 7.8217C26.3794 6.77281 25.043 6.0585 23.5882 5.76911C22.1333 5.47972 20.6253 5.62825 19.2549 6.19591C17.8844 6.76356 16.7131 7.72486 15.889 8.95823C15.0649 10.1916 14.625 11.6416 14.625 13.125C14.625 15.1141 15.4152 17.0218 16.8217 18.4283C18.2282 19.8348 20.1359 20.625 22.125 20.625Z" fill="#B0B0B0"/>
<path d="M33.375 39.375C33.8723 39.375 34.3492 39.1775 34.7008 38.8258C35.0525 38.4742 35.25 37.9973 35.25 37.5C35.25 34.019 33.8672 30.6806 31.4058 28.2192C28.9444 25.7578 25.606 24.375 22.125 24.375C18.644 24.375 15.3056 25.7578 12.8442 28.2192C10.3828 30.6806 9 34.019 9 37.5C9 37.9973 9.19754 38.4742 9.54918 38.8258C9.90081 39.1775 10.3777 39.375 10.875 39.375H33.375Z" fill="#AFAFAF"/>
</svg>
