<svg width="27" height="34" viewBox="0 0 27 34" fill="none" xmlns="http://www.w3.org/2000/svg">
<path d="M13.125 15C14.6084 15 16.0584 14.5601 17.2918 13.736C18.5251 12.9119 19.4864 11.7406 20.0541 10.3701C20.6218 8.99968 20.7703 7.49168 20.4809 6.03683C20.1915 4.58197 19.4772 3.2456 18.4283 2.1967C17.3794 1.14781 16.043 0.433503 14.5882 0.144114C13.1333 -0.145275 11.6253 0.00324961 10.2549 0.570907C8.88443 1.13856 7.71309 2.09986 6.88898 3.33323C6.06487 4.5666 5.625 6.01664 5.625 7.5C5.625 9.48913 6.41518 11.3968 7.8217 12.8033C9.22822 14.2098 11.1359 15 13.125 15Z" fill="#B0B0B0"/>
<path d="M24.375 33.75C24.8723 33.75 25.3492 33.5525 25.7008 33.2008C26.0525 32.8492 26.25 32.3723 26.25 31.875C26.25 28.394 24.8672 25.0556 22.4058 22.5942C19.9444 20.1328 16.606 18.75 13.125 18.75C9.64403 18.75 6.30564 20.1328 3.84422 22.5942C1.38281 25.0556 5.18704e-08 28.394 0 31.875C0 32.3723 0.197544 32.8492 0.549175 33.2008C0.900806 33.5525 1.37772 33.75 1.875 33.75H24.375Z" fill="#AFAFAF"/>
</svg>
